G04 #@! TF.GenerationSoftware,KiCad,Pcbnew,(6.0.1-0)*
G04 #@! TF.CreationDate,2022-07-03T22:05:18+06:00*
G04 #@! TF.ProjectId,Inverter 50W,496e7665-7274-4657-9220-3530572e6b69,rev?*
G04 #@! TF.SameCoordinates,Original*
G04 #@! TF.FileFunction,Paste,Top*
G04 #@! TF.FilePolarity,Positive*
%FSLAX46Y46*%
G04 Gerber Fmt 4.6, Leading zero omitted, Abs format (unit mm)*
G04 Created by KiCad (PCBNEW (6.0.1-0)) date 2022-07-03 22:05:18*
%MOMM*%
%LPD*%
G01*
G04 APERTURE LIST*
G04 Aperture macros list*
%AMRoundRect*
0 Rectangle with rounded corners*
0 $1 Rounding radius*
0 $2 $3 $4 $5 $6 $7 $8 $9 X,Y pos of 4 corners*
0 Add a 4 corners polygon primitive as box body*
4,1,4,$2,$3,$4,$5,$6,$7,$8,$9,$2,$3,0*
0 Add four circle primitives for the rounded corners*
1,1,$1+$1,$2,$3*
1,1,$1+$1,$4,$5*
1,1,$1+$1,$6,$7*
1,1,$1+$1,$8,$9*
0 Add four rect primitives between the rounded corners*
20,1,$1+$1,$2,$3,$4,$5,0*
20,1,$1+$1,$4,$5,$6,$7,0*
20,1,$1+$1,$6,$7,$8,$9,0*
20,1,$1+$1,$8,$9,$2,$3,0*%
G04 Aperture macros list end*
%ADD10RoundRect,0.250000X-0.250000X-0.475000X0.250000X-0.475000X0.250000X0.475000X-0.250000X0.475000X0*%
%ADD11R,2.000000X1.500000*%
%ADD12R,2.000000X3.800000*%
%ADD13RoundRect,0.150000X-0.825000X-0.150000X0.825000X-0.150000X0.825000X0.150000X-0.825000X0.150000X0*%
%ADD14RoundRect,0.250000X0.475000X-0.250000X0.475000X0.250000X-0.475000X0.250000X-0.475000X-0.250000X0*%
%ADD15RoundRect,0.225000X-0.225000X-0.250000X0.225000X-0.250000X0.225000X0.250000X-0.225000X0.250000X0*%
%ADD16RoundRect,0.200000X0.275000X-0.200000X0.275000X0.200000X-0.275000X0.200000X-0.275000X-0.200000X0*%
%ADD17RoundRect,0.250000X0.262500X0.450000X-0.262500X0.450000X-0.262500X-0.450000X0.262500X-0.450000X0*%
%ADD18RoundRect,0.250000X-0.262500X-0.450000X0.262500X-0.450000X0.262500X0.450000X-0.262500X0.450000X0*%
%ADD19RoundRect,0.225000X0.250000X-0.225000X0.250000X0.225000X-0.250000X0.225000X-0.250000X-0.225000X0*%
%ADD20RoundRect,0.200000X-0.200000X-0.275000X0.200000X-0.275000X0.200000X0.275000X-0.200000X0.275000X0*%
%ADD21R,1.480000X1.440000*%
%ADD22RoundRect,0.200000X0.200000X0.275000X-0.200000X0.275000X-0.200000X-0.275000X0.200000X-0.275000X0*%
%ADD23R,0.300000X0.500000*%
%ADD24R,1.300000X0.900000*%
%ADD25R,2.500000X1.800000*%
%ADD26R,1.700000X5.700000*%
%ADD27RoundRect,0.250000X-0.550000X1.500000X-0.550000X-1.500000X0.550000X-1.500000X0.550000X1.500000X0*%
%ADD28RoundRect,0.200000X-0.275000X0.200000X-0.275000X-0.200000X0.275000X-0.200000X0.275000X0.200000X0*%
%ADD29RoundRect,0.250000X-0.625000X0.375000X-0.625000X-0.375000X0.625000X-0.375000X0.625000X0.375000X0*%
%ADD30RoundRect,0.250000X-0.475000X0.250000X-0.475000X-0.250000X0.475000X-0.250000X0.475000X0.250000X0*%
G04 APERTURE END LIST*
D10*
X109150000Y-110300000D03*
X111050000Y-110300000D03*
D11*
X60200000Y-114250000D03*
D12*
X53900000Y-111950000D03*
D11*
X60200000Y-111950000D03*
X60200000Y-109650000D03*
D13*
X111401041Y-87945000D03*
X111401041Y-89215000D03*
X111401041Y-90485000D03*
X111401041Y-91755000D03*
X116351041Y-91755000D03*
X116351041Y-90485000D03*
X116351041Y-89215000D03*
X116351041Y-87945000D03*
D14*
X69500000Y-96750000D03*
X69500000Y-94850000D03*
D15*
X72775000Y-85750000D03*
X74325000Y-85750000D03*
D16*
X72900000Y-103375000D03*
X72900000Y-101725000D03*
D17*
X75612500Y-81750000D03*
X73787500Y-81750000D03*
D18*
X75587500Y-79100000D03*
X77412500Y-79100000D03*
D19*
X70550000Y-103425000D03*
X70550000Y-101875000D03*
D17*
X69962500Y-85000000D03*
X68137500Y-85000000D03*
D20*
X109275000Y-112300000D03*
X110925000Y-112300000D03*
D11*
X59850000Y-105050000D03*
D12*
X53550000Y-102750000D03*
D11*
X59850000Y-102750000D03*
X59850000Y-100450000D03*
D21*
X116376041Y-84752500D03*
X116376041Y-80422500D03*
D22*
X72625000Y-89650000D03*
X70975000Y-89650000D03*
D23*
X74100000Y-90050000D03*
X74600000Y-90050000D03*
X75100000Y-90050000D03*
X75600000Y-90050000D03*
X75600000Y-88250000D03*
X75100000Y-88250000D03*
X74600000Y-88250000D03*
X74100000Y-88250000D03*
D24*
X74850000Y-89150000D03*
D25*
X113300000Y-115400000D03*
X109300000Y-115400000D03*
D22*
X72625000Y-87850000D03*
X70975000Y-87850000D03*
D25*
X105400000Y-107000000D03*
X101400000Y-107000000D03*
D11*
X59850000Y-81250000D03*
D12*
X53550000Y-78950000D03*
D11*
X59850000Y-78950000D03*
X59850000Y-76650000D03*
X59800000Y-72050000D03*
X59800000Y-69750000D03*
D12*
X53500000Y-69750000D03*
D11*
X59800000Y-67450000D03*
D18*
X72037500Y-96050000D03*
X73862500Y-96050000D03*
X105612500Y-112350000D03*
X107437500Y-112350000D03*
D26*
X111926041Y-83250000D03*
X107426041Y-83250000D03*
D18*
X75537500Y-93500000D03*
X77362500Y-93500000D03*
D27*
X107626041Y-94800000D03*
X107626041Y-100400000D03*
D10*
X110020000Y-78250000D03*
X111920000Y-78250000D03*
D28*
X72850000Y-98525000D03*
X72850000Y-100175000D03*
D29*
X75600000Y-73000000D03*
X75600000Y-75800000D03*
D25*
X101357500Y-115400000D03*
X105357500Y-115400000D03*
D17*
X118138541Y-93900000D03*
X116313541Y-93900000D03*
D18*
X64837500Y-100350000D03*
X66662500Y-100350000D03*
X69337500Y-106350000D03*
X71162500Y-106350000D03*
D17*
X114488541Y-93900000D03*
X112663541Y-93900000D03*
D23*
X71050000Y-98450000D03*
X70550000Y-98450000D03*
X70050000Y-98450000D03*
X69550000Y-98450000D03*
X69550000Y-100250000D03*
X70050000Y-100250000D03*
X70550000Y-100250000D03*
X71050000Y-100250000D03*
D24*
X70300000Y-99350000D03*
D14*
X77400000Y-90050000D03*
X77400000Y-88150000D03*
D30*
X107626041Y-89050000D03*
X107626041Y-90950000D03*
D25*
X109200000Y-107000000D03*
X113200000Y-107000000D03*
M02*
