M48
INCH,TZ
T1C0.0157
T2C0.0197
T3C0.0394
T4C0.0472
T5C0.0512
%
G90
G05
T1
X23543Y-38543
X24528Y-26535
X24921Y-43583
X27008Y-39134
X27362Y-36614
X27795Y-41142
X28543Y-41142
X28819Y-36102
X29764Y-27992
X30366Y-37791
X30984Y-36732
X31004Y-34705
X31319Y-35453
X39921Y-27992
X39921Y-41102
X42283Y-43504
X43150Y-31417
X43150Y-34370
X44331Y-39528
X44606Y-46260
X45827Y-30945
T2
X21024Y-32874
X21220Y-45315
T3
X32280Y-29390
X32280Y-30390
X32280Y-31390
X32280Y-32390
X32280Y-33390
X32280Y-34390
X32280Y-35390
X32280Y-36390
X32280Y-37390
X32280Y-38390
X32280Y-39390
X32280Y-40390
X32280Y-41390
X32280Y-42390
X32280Y-43390
X38280Y-29390
X38280Y-30390
X38280Y-31390
X38280Y-32390
X38280Y-33390
X38280Y-34390
X38280Y-35390
X38280Y-36390
X38280Y-37390
X38280Y-38390
X38280Y-39390
X38280Y-40390
X38280Y-41390
X38280Y-42390
X38280Y-43390
T4
X49134Y-40433
X49134Y-43386
X49213Y-28543
X49213Y-30512
T5
X20669Y-34764
X20669Y-36732
X51181Y-34449
X51181Y-36417
T0
M30
