G04 #@! TF.GenerationSoftware,KiCad,Pcbnew,(6.0.1-0)*
G04 #@! TF.CreationDate,2022-07-03T22:05:18+06:00*
G04 #@! TF.ProjectId,Inverter 50W,496e7665-7274-4657-9220-3530572e6b69,rev?*
G04 #@! TF.SameCoordinates,Original*
G04 #@! TF.FileFunction,Copper,L4,Bot*
G04 #@! TF.FilePolarity,Positive*
%FSLAX46Y46*%
G04 Gerber Fmt 4.6, Leading zero omitted, Abs format (unit mm)*
G04 Created by KiCad (PCBNEW (6.0.1-0)) date 2022-07-03 22:05:18*
%MOMM*%
%LPD*%
G01*
G04 APERTURE LIST*
G04 #@! TA.AperFunction,ComponentPad*
%ADD10R,2.600000X2.600000*%
G04 #@! TD*
G04 #@! TA.AperFunction,ComponentPad*
%ADD11C,2.600000*%
G04 #@! TD*
G04 #@! TA.AperFunction,ComponentPad*
%ADD12R,2.400000X2.400000*%
G04 #@! TD*
G04 #@! TA.AperFunction,ComponentPad*
%ADD13C,2.400000*%
G04 #@! TD*
G04 #@! TA.AperFunction,ComponentPad*
%ADD14R,1.600000X1.600000*%
G04 #@! TD*
G04 #@! TA.AperFunction,ComponentPad*
%ADD15O,1.600000X1.600000*%
G04 #@! TD*
G04 #@! TA.AperFunction,ViaPad*
%ADD16C,0.800000*%
G04 #@! TD*
G04 #@! TA.AperFunction,ViaPad*
%ADD17C,1.000000*%
G04 #@! TD*
G04 #@! TA.AperFunction,Conductor*
%ADD18C,0.250000*%
G04 #@! TD*
G04 #@! TA.AperFunction,Conductor*
%ADD19C,0.500000*%
G04 #@! TD*
G04 APERTURE END LIST*
D10*
X130000000Y-92500000D03*
D11*
X130000000Y-87500000D03*
D10*
X52500000Y-88300000D03*
D11*
X52500000Y-93300000D03*
D12*
X125000000Y-77500000D03*
D13*
X125000000Y-72500000D03*
D12*
X124800000Y-110200000D03*
D13*
X124800000Y-102700000D03*
D14*
X81990000Y-74650000D03*
D15*
X81990000Y-77190000D03*
X81990000Y-79730000D03*
X81990000Y-82270000D03*
X81990000Y-84810000D03*
X81990000Y-87350000D03*
X81990000Y-89890000D03*
X81990000Y-92430000D03*
X81990000Y-94970000D03*
X81990000Y-97510000D03*
X81990000Y-100050000D03*
X81990000Y-102590000D03*
X81990000Y-105130000D03*
X81990000Y-107670000D03*
X81990000Y-110210000D03*
X97230000Y-110210000D03*
X97230000Y-107670000D03*
X97230000Y-105130000D03*
X97230000Y-102590000D03*
X97230000Y-100050000D03*
X97230000Y-97510000D03*
X97230000Y-94970000D03*
X97230000Y-92430000D03*
X97230000Y-89890000D03*
X97230000Y-87350000D03*
X97230000Y-84810000D03*
X97230000Y-82270000D03*
X97230000Y-79730000D03*
X97230000Y-77190000D03*
X97230000Y-74650000D03*
D16*
X62300000Y-67400000D03*
X68600000Y-99400000D03*
X112600000Y-100400000D03*
X116400000Y-78600000D03*
X75600000Y-71100000D03*
X59800000Y-97900000D03*
X78750000Y-88150000D03*
X69500000Y-93000000D03*
X78700000Y-93300000D03*
X77130000Y-95990000D03*
X73200000Y-91700000D03*
X79550000Y-90050000D03*
X72500000Y-104500000D03*
X70600000Y-104500000D03*
D17*
X53900000Y-115100000D03*
X53400000Y-83500000D03*
D16*
X109600000Y-79800000D03*
X109600000Y-87300000D03*
X101400000Y-104400000D03*
X101400000Y-71100000D03*
X113300000Y-117500000D03*
X63300000Y-110700000D03*
X107400000Y-110500000D03*
D18*
X79570000Y-92430000D02*
X78700000Y-93300000D01*
X81990000Y-92430000D02*
X79570000Y-92430000D01*
X77130000Y-95990000D02*
X78150000Y-94970000D01*
X78150000Y-94970000D02*
X81990000Y-94970000D01*
X77900000Y-91700000D02*
X79550000Y-90050000D01*
X73200000Y-91700000D02*
X77900000Y-91700000D01*
X70600000Y-104500000D02*
X72500000Y-104500000D01*
X109600000Y-87300000D02*
X109600000Y-79800000D01*
X109600000Y-79600000D02*
X109600000Y-79800000D01*
D19*
X101400000Y-71100000D02*
X101400000Y-104300000D01*
X113300000Y-117500000D02*
X112300000Y-118500000D01*
X64200000Y-111700000D02*
X63300000Y-110800000D01*
X111900000Y-118500000D02*
X109200000Y-118500000D01*
X71000000Y-118500000D02*
X64200000Y-111700000D01*
X63300000Y-110800000D02*
X63300000Y-110700000D01*
X112300000Y-118500000D02*
X111900000Y-118500000D01*
X109200000Y-118500000D02*
X71000000Y-118500000D01*
D18*
X100580000Y-110500000D02*
X107400000Y-110500000D01*
X97230000Y-100050000D02*
X99700000Y-102520000D01*
X99700000Y-102520000D02*
X99700000Y-109620000D01*
X99700000Y-109620000D02*
X100580000Y-110500000D01*
M02*
